:version 1.10
:name ASF
:units
  mass 1
  length 1
  angle deg
:documentation
  ASF file generated by Kaydara
:root
  axis xyz
  order  tx ty tz rx ry rz
  position 0 0 0
  orientation 0 0 0
:bonedata
  begin
    id 1
    name RightUpLegDummy
    direction -0.718183 -0.695806 0.00816078
    length 4.904
    axis 0 0 0 xyz
  end
  begin
    id 2
    name RightUpLeg
    direction 3.53373e-006 -0.995788 0.0916898
    length 17.4976
    axis -3.49089 -0.000906625 0.000286804 xyz
    dof rx ry rz
  end
  begin
    id 3
    name RightLeg
    direction 0.00371092 -0.995096 -0.0988419
    length 16.5821
    axis 3.68512 0.0193738 -0.131023 xyz
    dof rx ry rz
  end
  begin
    id 4
    name RightFoot
    direction 0.00079151 -0.46099 0.887405
    length 3.77069
    axis 4.81691e-005 -0.120479 -0.188788 xyz
    dof rx ry rz
  end
  begin
    id 5
    name RightToes
    direction 0 0 0
    length 0
    axis 0 0 0 xyz
    dof rx ry rz
  end
  begin
    id 6
    name SpineDummy
    direction 8.3039e-015 1 4.57515e-016
    length 4.6813
    axis 0 0 0 xyz
  end
  begin
    id 7
    name Spine
    direction -3.15643e-008 0.999988 0.00495137
    length 10.1015
    axis -0.001389 0.000121418 2.40972e-006 xyz
    dof rx ry rz
  end
  begin
    id 8
    name Spine1
    direction 0 0 0
    length 0
    axis -0.001389 0.000121451 1.30017e-006 xyz
    dof rx ry rz
  end
  begin
    id 9
    name HEadDummy
    direction -1.99912e-008 0.999999 0.00127422
    length 3.43865
    axis -0.001389 0.000121451 1.30017e-006 xyz
  end
  begin
    id 10
    name HEad
    direction 0 0 0
    length 0
    axis 0 0 0 xyz
    dof rx ry rz
  end
  begin
    id 11
    name LeftShoulder1Dummy
    direction 0.998891 -0.0402509 -0.0244456
    length 3.5433
    axis -0.001389 0.000121451 1.30017e-006 xyz
  end
  begin
    id 12
    name LeftShoulder1
    direction 0.99951 -0.000327763 0.0313091
    length 4.05031
    axis -0.001389 0.000121451 1.30017e-006 xyz
    dof rx ry rz
  end
  begin
    id 13
    name LeftArm
    direction 0.998561 -0.00100056 -0.0536182
    length 10.3537
    axis -23.1894 0.134784 0.967509 xyz
    dof rx ry rz
  end
  begin
    id 14
    name LeftForeArm
    direction 0.998903 0.00866432 0.046012
    length 8.70632
    axis -9.91835 -0.06569 -0.177794 xyz
    dof rx ry rz
  end
  begin
    id 15
    name LeftHand
    direction 0 0 0
    length 0
    axis 0 0 0 xyz
    dof rx ry rz
  end
  begin
    id 16
    name RightShoulderDummy
    direction -0.998891 -0.0402509 -0.0244414
    length 3.5433
    axis -0.001389 0.000121451 1.30017e-006 xyz
  end
  begin
    id 17
    name RightShoulder
    direction -0.99951 -0.000327807 0.0313133
    length 4.05031
    axis 0.215806 0.000203643 -0.0068026 xyz
    dof rx ry rz
  end
  begin
    id 18
    name RightArm
    direction -0.998573 -0.000999564 -0.053403
    length 10.3947
    axis -23.2009 -0.134239 -0.964101 xyz
    dof rx ry rz
  end
  begin
    id 19
    name RightForeArm
    direction -0.998898 0.00868028 0.0461306
    length 8.68355
    axis -9.92322 0.0658061 0.178868 xyz
    dof rx ry rz
  end
  begin
    id 20
    name RightHand
    direction 0 0 0
    length 0
    axis 0 0 0 xyz
    dof rx ry rz
  end
  begin
    id 21
    name LeftUpLegDummy
    direction 0.718183 -0.695806 0.00816078
    length 4.904
    axis 0 0 0 xyz
  end
  begin
    id 22
    name LeftUpLeg
    direction -6.81752e-006 -0.995793 0.0916337
    length 17.4976
    axis -3.48766 0.00143442 -0.000524262 xyz
    dof rx ry rz
  end
  begin
    id 23
    name LeftLeg
    direction -0.00601358 -0.995091 -0.0987824
    length 16.5821
    axis 3.68178 -0.00654042 -0.000285133 xyz
    dof rx ry rz
  end
  begin
    id 24
    name LeftFoot
    direction -0.00417578 -0.460984 0.887399
    length 3.77069
    axis 1.87233e-006 4.66016e-005 -8.6538e-006 xyz
    dof rx ry rz
  end
  begin
    id 25
    name LeftToes
    direction 0 0 0
    length 0
    axis 0 0 0 xyz
    dof rx ry rz
  end
:hierarchy
  begin
    root RightUpLegDummy SpineDummy LeftUpLegDummy
    RightUpLegDummy RightUpLeg
    RightUpLeg RightLeg
    RightLeg RightFoot
    RightFoot RightToes
    SpineDummy Spine
    Spine Spine1
    Spine1 HEadDummy LeftShoulder1Dummy RightShoulderDummy
    HEadDummy HEad
    LeftShoulder1Dummy LeftShoulder1
    LeftShoulder1 LeftArm
    LeftArm LeftForeArm
    LeftForeArm LeftHand
    RightShoulderDummy RightShoulder
    RightShoulder RightArm
    RightArm RightForeArm
    RightForeArm RightHand
    LeftUpLegDummy LeftUpLeg
    LeftUpLeg LeftLeg
    LeftLeg LeftFoot
    LeftFoot LeftToes
  end

:SAMPLES-PER-SECOND 30
:FULLY-SPECIFIED
:DEGREES
376
root  4.6254 33.5356 8.65704 148.655 87.3421 138.221
RightUpLeg  -57.0774 -12.4523 -0.00578051
RightLeg  62.6917 -5.92196 -12.8477
RightFoot  -13.1026 -0.0880278 0.0665216
RightToes  0.000481921 0.542163 -0.142578
Spine  62.5548 -2.09146 4.80912
Spine1  -16.5398 -0.724278 0.149744
HEad  -35.8698 -0.0645312 1.2207
LeftShoulder1  7.36233 -14.3512 -35.1646
LeftArm  -0.036378 -23.278 -43.7646
LeftForeArm  -178.903 -63.85 -161.082
LeftHand  -0.25398 0.0180481 5.50724
RightShoulder  4.3711 10.3584 25.4306
RightArm  -4.33594 16.5148 44.6512
RightForeArm  163.365 62.4084 160.456
RightHand  -1.42474 3.55805 -18.6471
LeftUpLeg  -59.4243 15.1962 -0.520853
LeftLeg  70.6515 -2.44669 -6.82462
LeftFoot  -7.43001 0.56389 -14.985
LeftToes  1.06245e-005 4.65868e-005 -8.65517e-006
377
root  4.59366 33.5021 8.23768 144.967 87.0555 134.576
RightUpLeg  -57.1562 -12.2343 -1.52483
RightLeg  62.9192 -6.02634 -13.1826
RightFoot  -12.5436 -0.074947 0.961686
RightToes  0.000481921 0.542163 -0.142578
Spine  63.0957 -2.09377 4.47621
Spine1  -16.7371 -0.673566 0.0979193
HEad  -35.887 -0.0487563 1.18571
LeftShoulder1  7.37908 -14.3884 -35.1719
LeftArm  0.252526 -23.3222 -44.1865
LeftForeArm  -178.864 -63.8118 -161.116
LeftHand  -0.25398 0.0180481 5.50724
RightShoulder  4.33293 10.3141 25.2479
RightArm  -4.54568 16.8167 44.2593
RightForeArm  163.614 62.3735 160.508
RightHand  -1.44118 3.73207 -18.5128
LeftUpLeg  -58.6775 12.3842 3.82425
LeftLeg  69.9859 -0.180037 0.18303
LeftFoot  -10.6442 0.142411 -10.7102
LeftToes  1.06245e-005 4.65868e-005 -8.65517e-006
378
root  4.56164 33.4594 7.75316 149.705 87.1462 139.344
RightUpLeg  -57.095 -12.1411 -2.29508
RightLeg  62.8431 -5.96623 -13.0168
RightFoot  -12.0759 -0.0705977 1.71277
RightToes  0.000481921 0.542163 -0.142578
Spine  63.5758 -2.01256 4.34474
Spine1  -16.9693 -0.502627 0.390966
HEad  -35.8798 0.158271 1.19534
LeftShoulder1  7.38161 -14.3846 -35.1945
LeftArm  0.361048 -23.2074 -44.4973
LeftForeArm  -178.859 -63.7487 -161.166
LeftHand  -0.25398 0.0180481 5.50724
RightShoulder  4.31596 10.3049 25.1413
RightArm  -4.42592 17.1355 43.8555
RightForeArm  163.583 62.2884 160.571
RightHand  -1.4527 3.77971 -18.5638
LeftUpLeg  -57.4051 9.76524 8.08829
LeftLeg  67.335 3.86887 10.7786
LeftFoot  -12.4642 0.0240306 -3.82971
LeftToes  1.06245e-005 4.65868e-005 -8.65517e-006
379
root  4.5509 33.3549 7.16793 157.569 87.5815 147.259
RightUpLeg  -57.0568 -11.9067 -2.91957
RightLeg  62.8717 -5.94918 -12.9988
RightFoot  -11.7781 -0.0713531 2.23522
RightToes  0.000481921 0.542163 -0.142578
Spine  63.8335 -1.88193 4.40049
Spine1  -17.0851 -0.280045 0.750394
HEad  -35.9467 0.393526 1.29123
LeftShoulder1  7.35099 -14.3347 -35.1396
LeftArm  0.460242 -23.1484 -44.6921
LeftForeArm  -178.823 -63.7189 -161.194
LeftHand  -0.25398 0.0180481 5.50724
RightShoulder  4.28905 10.303 24.9418
RightArm  -4.21717 17.2839 43.8248
RightForeArm  163.403 62.2199 160.607
RightHand  -1.45359 3.72895 -18.6731
LeftUpLeg  -55.3945 8.12178 11.7288
LeftLeg  63.3108 6.95883 15.4667
LeftFoot  -12.0174 0.0620961 -2.36031
LeftToes  1.06245e-005 4.65868e-005 -8.65517e-006
380
root  4.56735 33.1949 6.47947 165.865 88.0509 155.628
RightUpLeg  -57.1659 -11.6535 -3.95407
RightLeg  63.1962 -5.91205 -13.1073
RightFoot  -11.341 -0.0771834 3.00637
RightToes  0.000481921 0.542163 -0.142578
Spine  63.8526 -1.81723 4.4439
Spine1  -17.1266 -0.099118 0.804899
HEad  -35.9429 0.574644 1.34136
LeftShoulder1  7.32129 -14.2813 -35.0973
LeftArm  0.516065 -23.1847 -44.5791
LeftForeArm  -178.749 -63.6138 -161.284
LeftHand  -0.25398 0.0180481 5.50724
RightShoulder  4.26684 10.3222 24.7282
RightArm  -4.04972 17.2073 44.1134
RightForeArm  163.605 62.1577 160.675
RightHand  -1.44878 3.72561 -18.6274
LeftUpLeg  -53.5393 7.93544 13.6687
LeftLeg  59.8935 7.00016 13.3946
LeftFoot  -10.6596 0.118746 -7.97063
LeftToes  1.06245e-005 4.65868e-005 -8.65517e-006
381
root  4.5971 32.9944 5.70898 175.017 88.4641 164.964
RightUpLeg  -57.2605 -11.5331 -5.21404
RightLeg  63.6563 -5.56229 -12.649
RightFoot  -10.8444 -0.0902935 3.8849
RightToes  0.000481921 0.542163 -0.142578
Spine  63.8408 -1.77094 4.42117
Spine1  -17.267 -0.00589239 0.838665
HEad  -35.7755 0.773332 1.35637
LeftShoulder1  7.31379 -14.2403 -35.1494
LeftArm  0.476944 -23.2533 -44.1755
LeftForeArm  -178.65 -63.4276 -161.439
LeftHand  -0.25398 0.0180481 5.50724
RightShoulder  4.29543 10.3892 24.7875
RightArm  -3.88548 17.0601 44.2405
RightForeArm  164.012 62.0301 160.812
RightHand  -1.44917 3.77259 -18.5332
LeftUpLeg  -53.1105 9.24442 13.4815
LeftLeg  59.3884 5.47981 10.449
LeftFoot  -9.50421 0.270074 -13.7006
LeftToes  1.06245e-005 4.65868e-005 -8.65517e-006
382
root  4.61809 32.8423 4.91524 179.887 88.6726 170.144
RightUpLeg  -56.992 -11.4618 -6.70891
RightLeg  63.8013 -5.23739 -12.0478
RightFoot  -10.465 -0.104178 4.35846
RightToes  0.000481921 0.542163 -0.142578
Spine  63.9708 -1.6541 4.1616
Spine1  -17.4045 0.00306441 0.965891
HEad  -35.6487 0.953511 1.43609
LeftShoulder1  7.31026 -14.2124 -35.1936
LeftArm  0.493891 -23.4061 -43.7765
LeftForeArm  -178.486 -63.299 -161.555
LeftHand  -0.25398 0.0180481 5.50724
RightShoulder  4.36912 10.4636 25.1673
RightArm  -3.73853 16.9191 44.0516
RightForeArm  164.076 61.8103 160.985
RightHand  -1.44818 3.75276 -18.559
LeftUpLeg  -53.9363 11.071 11.6134
LeftLeg  61.2877 4.50518 9.45738
LeftFoot  -9.85098 0.240771 -13.5539
LeftToes  1.06245e-005 4.65868e-005 -8.65517e-006
383
root  4.64652 32.7735 4.11071 179.128 88.7387 169.598
RightUpLeg  -56.4817 -11.3569 -8.47913
RightLeg  63.5128 -5.34547 -12.1136
RightFoot  -9.89133 -0.12648 4.6694
RightToes  0.000481921 0.542163 -0.142578
Spine  64.067 -1.54227 3.8381
Spine1  -17.3607 0.00433489 0.922491
HEad  -35.7617 0.954782 1.4885
LeftShoulder1  7.31189 -14.2218 -35.1812
LeftArm  0.701006 -23.6366 -43.5325
LeftForeArm  -178.307 -63.2544 -161.606
LeftHand  -0.25398 0.0180481 5.50724
RightShoulder  4.43013 10.5006 25.5361
RightArm  -3.68329 16.6545 43.9277
RightForeArm  163.921 61.5707 161.149
RightHand  -1.44364 3.66955 -18.6217
LeftUpLeg  -54.8441 12.3112 9.35088
LeftLeg  63.1797 4.00969 9.21962
LeftFoot  -11.6475 0.0411614 -10.6022
LeftToes  1.06245e-005 4.65868e-005 -8.65517e-006
384
root  4.71002 32.7684 3.29643 -176.088 88.7869 174.319
RightUpLeg  -55.9667 -11.3305 -10.1636
RightLeg  62.7626 -5.54264 -12.1184
RightFoot  -8.77529 -0.181969 5.42215
RightToes  0.000481921 0.542163 -0.142578
Spine  63.8387 -1.47049 3.69309
Spine1  -17.2279 0.103964 0.730835
HEad  -35.9997 0.798304 1.34981
LeftShoulder1  7.35057 -14.2665 -35.2926
LeftArm  0.992102 -23.7205 -43.2792
LeftForeArm  -178.258 -63.146 -161.694
LeftHand  -0.25398 0.0180481 5.50724
RightShoulder  4.44601 10.523 25.6014
RightArm  -3.64742 16.2189 44.1596
RightForeArm  164.104 61.4149 161.282
RightHand  -1.4452 3.64938 -18.5928
LeftUpLeg  -55.2914 12.8097 7.63167
LeftLeg  64.0302 3.61574 8.72027
LeftFoot  -13.2308 -0.0772445 -9.3209
LeftToes  1.06245e-005 4.65868e-005 -8.65517e-006
385
root  4.80634 32.8071 2.49862 -161.516 88.8042 -171.28
RightUpLeg  -55.294 -11.3877 -11.4682
RightLeg  61.5421 -5.38227 -11.1901
RightFoot  -7.49793 -0.269092 6.4854
RightToes  0.000481921 0.542163 -0.142578
Spine  63.3882 -1.33153 3.64172
Spine1  -17.1441 0.29705 0.777328
HEad  -36.1307 0.681374 1.13077
LeftShoulder1  7.41356 -14.2904 -35.585
LeftArm  1.23594 -23.5018 -42.936
LeftForeArm  -178.265 -62.9149 -161.868
LeftHand  -0.25398 0.0180481 5.50724
RightShoulder  4.43965 10.5544 25.4801
RightArm  -3.47362 15.7931 44.5549
RightForeArm  164.626 61.3755 161.36
RightHand  -1.45015 3.72558 -18.521
LeftUpLeg  -55.5267 13.0476 6.3262
LeftLeg  64.5226 3.4027 8.44402
LeftFoot  -14.0557 -0.137539 -9.33984
LeftToes  1.06245e-005 4.65868e-005 -8.65517e-006
